<?xml version="1.0" standalone="no"?>
<!DOCTYPE svg PUBLIC "-//W3C//DTD SVG 20010904//EN"
 "http://www.w3.org/TR/2001/REC-SVG-20010904/DTD/svg10.dtd">
<svg version="1.0" xmlns="http://www.w3.org/2000/svg"
 width="1280.000000pt" height="1280.000000pt" viewBox="0 0 1280.000000 1280.000000"
 preserveAspectRatio="xMidYMid meet">

<g transform="translate(0.000000,1280.000000) scale(0.100000,-0.100000)"
fill="#000000" stroke="none">
<path d="M3967 6973 c-4 -3 -7 -170 -7 -370 l0 -363 75 0 75 0 0 217 0 217 67
-74 c37 -41 88 -96 113 -123 l45 -47 103 115 c57 63 107 115 113 115 5 0 9
-85 9 -210 l0 -210 70 0 70 0 0 370 c0 360 -1 370 -19 370 -13 0 -75 -62 -177
-177 -86 -98 -162 -179 -169 -181 -6 -2 -83 78 -170 178 -144 164 -178 193
-198 173z"/>
<path d="M4850 6610 l0 -370 265 0 266 0 -3 65 -3 65 -180 4 c-99 3 -186 5
-192 5 -9 1 -13 25 -13 86 l0 85 145 0 145 0 0 65 0 65 -145 0 -146 0 3 83 3
82 193 3 192 2 0 65 0 65 -265 0 -265 0 0 -370z"/>
<path d="M5540 6610 l0 -372 188 4 c211 6 264 17 331 75 144 123 143 464 -1
587 -68 59 -110 68 -325 73 l-193 5 0 -372z m331 220 c30 -6 65 -18 79 -28 98
-70 99 -311 2 -381 -38 -27 -122 -43 -204 -39 l-63 3 -3 215 c-1 118 0 220 2
227 7 16 110 17 187 3z"/>
<path d="M6510 6955 c-95 -31 -186 -123 -222 -223 -22 -59 -23 -172 -3 -239
58 -196 279 -299 490 -228 54 19 115 55 115 70 0 5 -19 28 -41 51 l-41 42 -52
-24 c-91 -42 -222 -29 -284 29 -62 57 -87 168 -58 255 21 63 86 126 148 142
58 16 143 7 202 -21 l48 -24 39 45 c21 25 38 50 36 55 -2 6 -34 26 -71 45 -62
31 -76 35 -164 37 -66 2 -112 -2 -142 -12z"/>
<path d="M7327 6958 c-2 -7 -59 -148 -125 -313 -66 -165 -130 -324 -141 -352
l-21 -53 73 0 72 0 21 58 20 57 171 3 c189 3 179 6 207 -70 l18 -48 74 0 c67
0 73 2 66 18 -4 10 -70 174 -147 365 l-140 347 -71 0 c-48 0 -73 -4 -77 -12z
m141 -312 c28 -74 52 -139 52 -145 0 -7 -40 -11 -115 -11 -68 0 -115 4 -115
10 0 9 54 148 94 243 9 20 20 37 24 37 4 0 31 -60 60 -134z"/>
<path d="M7890 6606 l0 -366 70 0 70 0 0 155 0 156 71 -3 71 -3 56 -95 c30
-52 69 -120 86 -150 l32 -55 81 -3 82 -3 -90 155 c-49 85 -89 159 -89 164 0 4
15 16 34 25 19 8 47 33 63 53 24 32 28 48 31 114 5 99 -17 147 -85 187 l-48
28 -217 3 -218 3 0 -365z m394 234 c38 -14 59 -53 52 -95 -11 -55 -33 -63
-179 -67 l-127 -3 0 88 0 87 114 0 c63 0 126 -4 140 -10z"/>
<path d="M8610 6605 l0 -365 265 0 265 0 0 65 0 65 -197 2 -198 3 0 85 0 85
148 3 147 3 0 64 0 64 -145 -2 c-89 -1 -146 2 -149 8 -2 6 -3 44 -2 85 l1 75
198 3 197 2 0 60 0 60 -265 0 -265 0 0 -365z"/>
</g>
</svg>
